<?xml version="1.0" encoding="UTF-8" standalone="no"?>
<svg
   inkscape:output_extension="org.inkscape.output.svg.inkscape"
   sodipodi:docname="BG_road_sign_А23.svg"
   inkscape:version="1.2.2 (732a01da63, 2022-12-09)"
   sodipodi:version="0.32"
   id="svg2"
   height="200.89999"
   width="200.89999"
   version="1.0"
   xml:space="preserve"
   xmlns:inkscape="http://www.inkscape.org/namespaces/inkscape"
   xmlns:sodipodi="http://sodipodi.sourceforge.net/DTD/sodipodi-0.dtd"
   xmlns="http://www.w3.org/2000/svg"
   xmlns:svg="http://www.w3.org/2000/svg"
   xmlns:rdf="http://www.w3.org/1999/02/22-rdf-syntax-ns#"
   xmlns:cc="http://creativecommons.org/ns#"
   xmlns:dc="http://purl.org/dc/elements/1.1/"><metadata
     id="metadata12"><rdf:RDF><cc:Work
         rdf:about=""><dc:format>image/svg+xml</dc:format><dc:type
           rdf:resource="http://purl.org/dc/dcmitype/StillImage" /></cc:Work></rdf:RDF></metadata><sodipodi:namedview
     inkscape:document-rotation="0"
     inkscape:window-maximized="1"
     inkscape:showpageshadow="false"
     showgrid="false"
     height="200px"
     width="200px"
     inkscape:current-layer="svg2"
     inkscape:window-y="-9"
     inkscape:window-x="-9"
     inkscape:cy="78.727058"
     inkscape:cx="350.85874"
     inkscape:zoom="1.0987328"
     id="base"
     pagecolor="#ffffff"
     bordercolor="#666666"
     borderopacity="1.0"
     objecttolerance="10.0"
     gridtolerance="10.0"
     guidetolerance="10.0"
     inkscape:pageopacity="0.0"
     inkscape:pageshadow="2"
     inkscape:window-width="1920"
     inkscape:window-height="991"
     inkscape:pagecheckerboard="0"
     inkscape:snap-intersection-paths="true"
     inkscape:snap-smooth-nodes="true"
     inkscape:snap-bbox="true"
     inkscape:snap-bbox-edge-midpoints="true"
     inkscape:bbox-nodes="true"
     showguides="true"
     inkscape:guide-bbox="true"
     inkscape:deskcolor="#d1d1d1" /><defs
     id="defs4"><inkscape:perspective
       id="perspective14"
       inkscape:persp3d-origin="450 : 412.78007 : 1"
       inkscape:vp_z="900 : 562.78007 : 1"
       inkscape:vp_y="0 : 1000 : 0"
       inkscape:vp_x="0 : 562.78007 : 1"
       sodipodi:type="inkscape:persp3d" /></defs><path
     inkscape:connector-curvature="0"
     id="path2368"
     d="m -2179.4215,-980.40131 c 0,0 0,0 0,0 z"
     style="fill:#000000" /><path
     inkscape:connector-curvature="0"
     id="path2370"
     d="M -2182.3903,-980.33881 Z"
     style="fill:#000000" /><g
     id="g19671"
     transform="translate(0.40000016,-0.04999953)" /><polygon
     id="_163088416"
     class="fil1"
     points="507.182,92.8179 593,178.636 593,300 593,421.365 507.182,507.182 421.364,593 300,593 178.635,593 92.8176,507.182 7,421.365 7.0001,300 7,178.635 92.8178,92.818 178.635,7.0002 300,7.0003 421.365,7 "
     transform="matrix(0.34129693,0,0,0.34129693,-1.9390783,-1.939078)"
     style="clip-rule:evenodd;opacity:1;fill:#dd2414;fill-rule:evenodd;stroke:none;stroke-width:2.637;stroke-dasharray:none;stroke-opacity:1;paint-order:stroke fill markers;image-rendering:optimizeQuality;shape-rendering:geometricPrecision;text-rendering:geometricPrecision;fill-opacity:1" /><polygon
     id="polygon56686"
     class="fil1"
     points="593,300 593,421.365 507.182,507.182 421.364,593 300,593 178.635,593 92.8176,507.182 7,421.365 7.0001,300 7,178.635 92.8178,92.818 178.635,7.0002 300,7.0003 421.365,7 507.182,92.8179 593,178.636 "
     transform="matrix(0.32423213,0,0,0.32423213,3.1803217,3.180322)"
     style="clip-rule:evenodd;opacity:1;fill:#ffffff;fill-rule:evenodd;image-rendering:optimizeQuality;shape-rendering:geometricPrecision;text-rendering:geometricPrecision" /><polygon
     id="polygon56688"
     class="fil1"
     points="507.182,507.182 421.364,593 300,593 178.635,593 92.8176,507.182 7,421.365 7.0001,300 7,178.635 92.8178,92.818 178.635,7.0002 300,7.0003 421.365,7 507.182,92.8179 593,178.636 593,300 593,421.365 "
     transform="matrix(0.30716733,0,0,0.30716733,8.2998217,8.299822)"
     style="clip-rule:evenodd;opacity:1;fill:#dd2414;fill-rule:evenodd;image-rendering:optimizeQuality;shape-rendering:geometricPrecision;text-rendering:geometricPrecision;fill-opacity:1" /><path
     d="m 15.449943,114.95009 h 9.955998 v 2.60387 q 0,3.01233 1.582748,5.20775 2.399651,3.21656 6.484163,3.21656 3.522893,0 5.871483,-2.65494 1.991201,-2.29753 1.991201,-5.51409 0,-3.06338 -2.042256,-5.2588 L 20.912977,92.689494 q -4.492963,-4.901415 -4.492963,-11.487691 0,-8.06691 6.177825,-13.070436 4.901414,-3.931345 10.926069,-3.931345 8.169023,0 13.223608,6.841561 3.063385,4.08451 3.471835,9.955995 h -9.64966 q -0.612675,-2.85916 -1.786976,-4.23768 -2.09331,-2.603875 -5.411976,-2.603875 -3.11444,0 -5.309865,2.55282 -1.684862,1.889085 -1.684862,4.441905 0,2.705991 1.940144,4.799301 l 18.380305,20.116221 q 4.595075,5.00353 4.595075,11.99826 0,7.50529 -5.207755,12.50881 -5.51409,5.36092 -12.559873,5.36092 -5.769373,0 -10.926069,-3.77817 -7.147896,-5.20775 -7.147896,-14.44896 z"
     style="font-weight:bold;font-size:209.127px;font-family:'Snv Becker Reg Cond';-inkscape-font-specification:'Snv Becker Reg Cond Bold';letter-spacing:1.98438px;clip-rule:evenodd;opacity:1;fill:#ffffff;fill-rule:evenodd;stroke-width:4.84128;stroke-linecap:square;paint-order:stroke fill markers;image-rendering:optimizeQuality;shape-rendering:geometricPrecision;text-rendering:geometricPrecision"
     id="path56902" /><path
     d="M 80.977419,74.207078 V 134.91314 H 71.021423 V 74.207078 H 58.257322 v -8.985926 h 35.841593 v 8.985926 z"
     style="font-weight:bold;font-size:209.127px;font-family:'Snv Becker Reg Cond';-inkscape-font-specification:'Snv Becker Reg Cond Bold';letter-spacing:1.98438px;clip-rule:evenodd;opacity:1;fill:#ffffff;fill-rule:evenodd;stroke-width:4.84128;stroke-linecap:square;paint-order:stroke fill markers;image-rendering:optimizeQuality;shape-rendering:geometricPrecision;text-rendering:geometricPrecision"
     id="path56904" /><path
     d="M 102.29005,117.91136 V 82.171873 q 0,-6.994725 4.44191,-11.99825 5.30987,-5.973601 13.42783,-5.973601 9.1391,0 14.44896,7.607406 3.52289,5.003525 3.52289,10.364445 v 35.739487 q 0,5.30986 -3.01232,9.90494 -5.36092,8.11796 -15.1127,8.11796 -8.67958,0 -13.88734,-6.4331 -3.82923,-4.74825 -3.82923,-11.5898 z m 25.8856,1.27641 V 81.150748 q 0,-3.318665 -2.3486,-5.616205 -2.39965,-2.348595 -5.56514,-2.348595 -4.39085,0 -6.89262,3.778175 -1.12324,1.786975 -1.12324,4.186625 v 38.037022 q 0,2.96127 1.68486,4.95247 2.3486,2.8081 6.17783,2.8081 4.39085,0 6.73944,-3.42078 1.32747,-2.04226 1.32747,-4.33979 z"
     style="font-weight:bold;font-size:209.127px;font-family:'Snv Becker Reg Cond';-inkscape-font-specification:'Snv Becker Reg Cond Bold';letter-spacing:1.98438px;clip-rule:evenodd;opacity:1;fill:#ffffff;fill-rule:evenodd;stroke-width:4.84128;stroke-linecap:square;paint-order:stroke fill markers;image-rendering:optimizeQuality;shape-rendering:geometricPrecision;text-rendering:geometricPrecision"
     id="path56906" /><path
     d="M 149.5904,134.91314 V 65.221152 h 20.2694 q 7.25001,-0.05106 11.74297,4.850356 3.82923,4.39085 3.82923,11.23241 v 7.250006 q 0,3.67606 -1.88909,7.301066 -2.75704,5.25881 -8.73064,7.35212 -2.85916,0.97008 -5.41198,0.97008 h -9.85389 v 30.73595 z m 9.956,-39.72188 h 8.88382 q 3.31866,0 5.30986,-2.093316 1.73592,-1.889085 1.73592,-4.54402 v -7.250006 q 0,-2.70599 -1.42958,-4.595075 -1.83803,-2.501765 -5.41198,-2.501765 h -9.08804 z"
     style="font-weight:bold;font-size:209.127px;font-family:'Snv Becker Reg Cond';-inkscape-font-specification:'Snv Becker Reg Cond Bold';letter-spacing:1.98438px;clip-rule:evenodd;opacity:1;fill:#ffffff;fill-rule:evenodd;stroke-width:4.84128;stroke-linecap:square;paint-order:stroke fill markers;image-rendering:optimizeQuality;shape-rendering:geometricPrecision;text-rendering:geometricPrecision"
     id="path56908" /></svg>
