<?xml version="1.0" encoding="UTF-8" standalone="no"?>
<!-- Created with Inkscape (http://www.inkscape.org/) -->

<svg
   width="53.048958mm"
   height="33.205208mm"
   viewBox="0 0 53.048958 33.205208"
   version="1.1"
   id="svg2765"
   inkscape:version="1.2.2 (732a01da63, 2022-12-09)"
   sodipodi:docname="BG_road_sign_Т7.svg"
   xml:space="preserve"
   xmlns:inkscape="http://www.inkscape.org/namespaces/inkscape"
   xmlns:sodipodi="http://sodipodi.sourceforge.net/DTD/sodipodi-0.dtd"
   xmlns="http://www.w3.org/2000/svg"
   xmlns:svg="http://www.w3.org/2000/svg"><sodipodi:namedview
     id="namedview2767"
     pagecolor="#ffffff"
     bordercolor="#000000"
     borderopacity="0.25"
     inkscape:showpageshadow="2"
     inkscape:pageopacity="0.0"
     inkscape:pagecheckerboard="0"
     inkscape:deskcolor="#d1d1d1"
     inkscape:document-units="mm"
     showgrid="false"
     inkscape:zoom="2.025849"
     inkscape:cx="169.06492"
     inkscape:cy="105.38791"
     inkscape:window-width="1920"
     inkscape:window-height="991"
     inkscape:window-x="-9"
     inkscape:window-y="-9"
     inkscape:window-maximized="1"
     inkscape:current-layer="layer1" /><defs
     id="defs2762" /><g
     inkscape:label="Layer 1"
     inkscape:groupmode="layer"
     id="layer1"
     transform="translate(-38.490446,-113.79665)"><path
       id="rect1740"
       style="fill:#000000;fill-rule:evenodd;stroke:none;stroke-width:0.132292;stroke-linecap:round;stroke-dasharray:none;stroke-opacity:1;paint-order:stroke fill markers"
       d="m 41.500435,113.8628 h 47.028979 c 1.630889,0 2.943844,1.31295 2.943844,2.94384 v 27.18523 c 0,1.63089 -1.312955,2.94385 -2.943844,2.94385 H 41.500435 c -1.630889,0 -2.943843,-1.31296 -2.943843,-2.94385 v -27.18523 c 0,-1.63089 1.312954,-2.94384 2.943843,-2.94384 z" /><path
       id="rect1794"
       style="fill:#ffffff;fill-rule:evenodd;stroke-width:0.779007;stroke-linecap:round;paint-order:stroke fill markers"
       d="M 41.500008,113.98687 H 88.52907 c 1.562015,0 2.819519,1.2575 2.819519,2.81952 v 27.18497 c 0,1.56201 -1.257504,2.81952 -2.819519,2.81952 H 41.500008 c -1.562014,0 -2.81952,-1.25751 -2.81952,-2.81952 v -27.18497 c 0,-1.56202 1.257506,-2.81952 2.81952,-2.81952 z" /><g
       id="rect2522"
       transform="matrix(0.13229167,0,0,0.13229167,38.556592,113.8628)"><path
         id="path2705"
         style="color:#000000;fill:#000000;fill-rule:evenodd;stroke-linecap:round;-inkscape-stroke:none;paint-order:stroke fill markers"
         d="m 22.267578,6.265625 c -8.660412,0 -16.001953,7.343494 -16.001953,16.003906 V 227.72656 c 0,8.66042 7.341534,16.00196 16.001953,16.00196 H 377.72656 c 8.66042,0 16.00196,-7.34154 16.00196,-16.00196 V 22.269531 c 0,-8.660419 -7.34154,-16.003906 -16.00196,-16.003906 z m 0,11.865234 H 377.72656 c 2.29245,0 4.13672,1.846223 4.13672,4.138672 V 227.72656 c 0,2.29245 -1.84427,4.13867 -4.13672,4.13867 H 22.267578 c -2.29245,0 -4.136719,-1.84622 -4.136719,-4.13867 V 22.269531 c 0,-2.292449 1.844269,-4.138672 4.136719,-4.138672 z" /></g><path
       d="m 57.070119,120.22638 c -0.508035,0 -0.988141,0.16131 -1.393313,0.43456 -0.632287,0.42642 -1.097636,1.23255 -1.560287,1.91321 -0.804661,1.18386 -2.172225,4.02715 -2.172225,4.02715 0,0 -3.092916,3.81366 -3.090489,6.09011 0.0018,1.1001 0.894856,2.28843 1.585447,3.2783 0.388084,0.55629 0.757414,1.31354 0.757414,1.31354 l 0.17979,3.28812 h 4.314401 l 0.370096,-2.91003 -0.0018,-0.008 0.103769,0.008 h 6.479282 4.747116 6.478643 0.0025 l 0.370095,2.91003 h 4.314395 l 0.277428,-3.28812 c 0,0 0.369954,-0.75725 0.758052,-1.31354 0.690577,-0.98989 1.58357,-2.17822 1.58484,-3.2783 0.0018,-2.27645 -3.090488,-6.09012 -3.090488,-6.09012 0,0 -1.367564,-2.84329 -2.172222,-4.02715 -0.462651,-0.68066 -0.927979,-1.48679 -1.560255,-1.91321 -0.405204,-0.27326 -0.885289,-0.43456 -1.393345,-0.43456 H 64.653697 64.11787 Z m -0.27559,1.31598 h 6.686723 0.55367 9.200843 c 0.488798,0 0.693519,0.43105 0.882033,0.88204 l 2.356993,5.63896 c 0.188542,0.45098 -0.393238,0.88204 -0.88204,0.88203 h -11.557829 -0.55367 -9.043705 c -0.488805,1e-5 -1.070553,-0.43105 -0.88204,-0.88203 l 2.356997,-5.63897 c 0.188531,-0.45099 0.393227,-0.88204 0.882025,-0.88203 z m -3.715942,8.72085 a 2.2923374,2.2923374 0 0 1 0.032,0 2.2923374,2.2923374 0 0 1 2.292555,2.29193 2.2923374,2.2923374 0 0 1 -2.292555,2.29255 2.2923374,2.2923374 0 0 1 -2.29193,-2.29255 2.2923374,2.2923374 0 0 1 2.260025,-2.29193 z m 23.885408,0 a 2.2923374,2.2923374 0 0 1 0.032,0 2.2923374,2.2923374 0 0 1 2.292522,2.29193 2.2923374,2.2923374 0 0 1 -2.292522,2.29255 2.2923374,2.2923374 0 0 1 -2.292551,-2.29255 2.2923374,2.2923374 0 0 1 2.260617,-2.29193 z m -18.989142,2.24406 h 14.168966 c 0.176527,0 0.318555,0.14195 0.318555,0.31856 v 2.36619 c 0,0.17662 -0.142028,0.31857 -0.318555,0.31857 H 57.974853 c -0.17654,0 -0.319165,-0.14195 -0.319165,-0.31857 v -2.36619 c 0,-0.17661 0.142529,-0.31856 0.319165,-0.31856 z"
       style="display:inline;fill:#000000;stroke-width:2.64946;stroke-miterlimit:10;paint-order:stroke fill markers"
       id="rect69381" /><path
       style="opacity:1;fill:#dc291b;fill-rule:evenodd;stroke-width:0.184231;stroke-linecap:round;paint-order:stroke fill markers;fill-opacity:1"
       d="m 143.75329,-16.609599 1.2e-4,52.171541 1.43186,0.825194 c 0.26268,0.151384 0.59639,0.06202 0.74796,-0.200767 l 1.18959,-2.062467 2.7e-4,-52.174296 -1.43142,-0.824935 c -0.26268,-0.151385 -0.59594,-0.06176 -0.74751,0.201024 z"
       transform="matrix(0.49917064,0.8665037,-0.86615265,0.49977954,0,0)"
       id="path1757" /><g
       id="g1699"
       transform="matrix(0.13229167,0,0,0.13229167,38.556592,113.8628)" /></g></svg>
