<?xml version="1.0" encoding="UTF-8" standalone="no"?>
<svg
   xmlns:osb="http://www.openswatchbook.org/uri/2009/osb"
   xmlns:dc="http://purl.org/dc/elements/1.1/"
   xmlns:cc="http://creativecommons.org/ns#"
   xmlns:rdf="http://www.w3.org/1999/02/22-rdf-syntax-ns#"
   xmlns:svg="http://www.w3.org/2000/svg"
   xmlns="http://www.w3.org/2000/svg"
   xmlns:xlink="http://www.w3.org/1999/xlink"
   xmlns:sodipodi="http://sodipodi.sourceforge.net/DTD/sodipodi-0.dtd"
   xmlns:inkscape="http://www.inkscape.org/namespaces/inkscape"
   version="1.1"
   id="svg3725"
   width="100.593"
   height="100.59315"
   viewBox="0 0 100.593 100.59315"
   sodipodi:docname="Bulgaria_road_sign_В.svg"
   inkscape:version="1.0 (4035a4fb49, 2020-05-01)">
  <sodipodi:namedview
     inkscape:document-rotation="0"
     pagecolor="#ffffff"
     bordercolor="#666666"
     borderopacity="1"
     objecttolerance="10"
     gridtolerance="10"
     guidetolerance="10"
     inkscape:pageopacity="0"
     inkscape:pageshadow="2"
     inkscape:window-width="1920"
     inkscape:window-height="1001"
     id="namedview11686"
     showgrid="false"
     inkscape:zoom="8.4800002"
     inkscape:cx="87.358072"
     inkscape:cy="49.162928"
     inkscape:window-x="-9"
     inkscape:window-y="-9"
     inkscape:window-maximized="1"
     inkscape:current-layer="layer1" />
  <metadata
     id="metadata3731">
    <rdf:RDF>
      <cc:Work
         rdf:about="">
        <dc:format>image/svg+xml</dc:format>
        <dc:type
           rdf:resource="http://purl.org/dc/dcmitype/StillImage" />
        <dc:title />
      </cc:Work>
    </rdf:RDF>
  </metadata>
  <defs
     id="defs3729">
    <linearGradient
       id="linearGradient896"
       osb:paint="solid">
      <stop
         style="stop-color:#dc291b;stop-opacity:1;"
         offset="0"
         id="stop894" />
    </linearGradient>
    <linearGradient
       gradientTransform="matrix(1.069451,0,0,1.069451,110.86438,-493.20714)"
       xlink:href="#linearGradient896"
       id="linearGradient898"
       x1="-101.50877"
       y1="507.72183"
       x2="-12.287497"
       y2="507.72183"
       gradientUnits="userSpaceOnUse" />
    <clipPath
       clipPathUnits="userSpaceOnUse"
       id="clipPath905">
      <g
         id="use907"
         clip-path="none">
        <path
           d="m -73.782979,500.73653 h 1.725204 l 2.510422,-6.9763 4.11e-4,6.97546 h 1.59237 l -0.01454,-11.32143 h -1.731067 l -2.498127,6.92377 v -6.92806 h -1.584907 v 11.32317 z"
           style="fill:#040101;fill-opacity:1;fill-rule:evenodd;stroke:none;stroke-width:0.552835"
           id="path49"
           clip-path="none" />
        <path
           d="m 73.993606,39.854548 -0.491236,2.396888 -1.501216,0.0062 2.223869,-10.918039 h 0.888662 L 76,31.339766 78.225458,42.253675 h -1.499567 l -0.486168,-2.398957 h -2.246117 z m 1.118115,-5.487423 -0.876998,4.313552 1.766228,-0.0089 -0.88923,-4.304882 z m 0,-3.026922 h -0.88828"
           style="display:inline;fill:#040101;fill-opacity:1;fill-rule:evenodd;stroke:none;stroke-width:0.520442"
           id="path51" />
      </g>
    </clipPath>
  </defs>
  <g
     inkscape:groupmode="layer"
     transform="matrix(1.069451,0,0,1.069451,222.97427,-490.972)"
     id="layer1"
     style="display:inline;opacity:1">
    <g
       id="g169062"
       style="opacity:1"
       transform="matrix(0.99997779,0,0,1,-0.00463162,0)">
      <path
         style="color:#000000;font-style:normal;font-variant:normal;font-weight:normal;font-stretch:normal;font-size:medium;line-height:normal;font-family:sans-serif;font-variant-ligatures:normal;font-variant-position:normal;font-variant-caps:normal;font-variant-numeric:normal;font-variant-alternates:normal;font-variant-east-asian:normal;font-feature-settings:normal;font-variation-settings:normal;text-indent:0;text-align:start;text-decoration:none;text-decoration-line:none;text-decoration-style:solid;text-decoration-color:#000000;letter-spacing:normal;word-spacing:normal;text-transform:none;writing-mode:lr-tb;direction:ltr;text-orientation:mixed;dominant-baseline:auto;baseline-shift:baseline;text-anchor:start;white-space:normal;shape-padding:0;shape-margin:0;inline-size:0;clip-rule:nonzero;display:inline;overflow:visible;visibility:visible;isolation:auto;mix-blend-mode:normal;color-interpolation:sRGB;color-interpolation-filters:linearRGB;solid-color:#000000;solid-opacity:1;vector-effect:none;fill:#000000;fill-opacity:1;fill-rule:nonzero;stroke:none;stroke-width:0.555425;stroke-linecap:butt;stroke-linejoin:miter;stroke-miterlimit:4;stroke-dasharray:none;stroke-dashoffset:0;stroke-opacity:1;paint-order:stroke fill markers;color-rendering:auto;image-rendering:auto;shape-rendering:auto;text-rendering:auto;enable-background:accumulate;stop-color:#000000;stop-opacity:1"
         d="m -161.46289,459.08789 c -25.97109,-3.5e-4 -47.03113,21.05998 -47.03125,47.03125 1.2e-4,25.97127 21.06016,47.02965 47.03125,47.0293 25.97075,-1.2e-4 47.03113,-21.05837 47.03125,-47.0293 -1.2e-4,-25.97093 -21.0605,-47.03113 -47.03125,-47.03125 z m 0,0.55664 c 25.67057,1.2e-4 46.47449,20.80385 46.47461,46.47461 -1.2e-4,25.67076 -20.80404,46.47449 -46.47461,46.47461 -25.67091,3.5e-4 -46.47449,-20.80351 -46.47461,-46.47461 1.2e-4,-25.67109 20.8037,-46.47496 46.47461,-46.47461 z"
         id="path169064" />
      <path
         style="color:#000000;font-style:normal;font-variant:normal;font-weight:normal;font-stretch:normal;font-size:medium;line-height:normal;font-family:sans-serif;font-variant-ligatures:normal;font-variant-position:normal;font-variant-caps:normal;font-variant-numeric:normal;font-variant-alternates:normal;font-variant-east-asian:normal;font-feature-settings:normal;font-variation-settings:normal;text-indent:0;text-align:start;text-decoration:none;text-decoration-line:none;text-decoration-style:solid;text-decoration-color:#000000;letter-spacing:normal;word-spacing:normal;text-transform:none;writing-mode:lr-tb;direction:ltr;text-orientation:mixed;dominant-baseline:auto;baseline-shift:baseline;text-anchor:start;white-space:normal;shape-padding:0;shape-margin:0;inline-size:0;clip-rule:nonzero;display:inline;overflow:visible;visibility:visible;isolation:auto;mix-blend-mode:normal;color-interpolation:sRGB;color-interpolation-filters:linearRGB;solid-color:#000000;solid-opacity:1;vector-effect:none;fill:#ffffff;fill-opacity:1;fill-rule:nonzero;stroke:none;stroke-width:0.555425;stroke-linecap:butt;stroke-linejoin:miter;stroke-miterlimit:4;stroke-dasharray:none;stroke-dashoffset:0;stroke-opacity:1;paint-order:stroke fill markers;color-rendering:auto;image-rendering:auto;shape-rendering:auto;text-rendering:auto;enable-background:accumulate;stop-color:#000000;stop-opacity:1"
         d="m -161.46217,459.36586 c -25.821,-3.5e-4 -46.75327,20.93169 -46.75339,46.75287 1.2e-4,25.82118 20.93239,46.75322 46.75339,46.75287 25.82066,-1.2e-4 46.75241,-20.93202 46.75253,-46.75287 -1.2e-4,-25.82085 -20.93187,-46.75275 -46.75253,-46.75287 z"
         id="path169066" />
    </g>
    <path
       d="m -161.46322,460.7816 a 45.335527,45.336859 0 0 0 -45.33579,45.33713 45.335527,45.336859 0 0 0 45.33579,45.33712 45.335527,45.336859 0 0 0 45.33495,-45.33712 45.335527,45.336859 0 0 0 -45.33495,-45.33713 z m -0.0274,9.38913 a 35.946717,35.947775 0 0 1 0.0274,0 35.946717,35.947775 0 0 1 35.94608,35.948 35.946717,35.947775 0 0 1 -35.94608,35.94799 35.946717,35.947775 0 0 1 -35.94693,-35.94799 35.946717,35.947775 0 0 1 35.91952,-35.948 z"
       style="opacity:1;fill:#dc291b;fill-opacity:1;stroke-width:0.538668"
       id="circle168203" />
  </g>
</svg>
